<?xml version="1.0" encoding="UTF-8" standalone="no"?>
<!DOCTYPE svg PUBLIC "-//W3C//DTD SVG 1.1//EN" "http://www.w3.org/Graphics/SVG/1.1/DTD/svg11.dtd">
<svg width="100%" height="100%" viewBox="0 0 135 129" version="1.1" xmlns="http://www.w3.org/2000/svg" xmlns:xlink="http://www.w3.org/1999/xlink" xml:space="preserve" xmlns:serif="http://www.serif.com/" style="fill-rule:evenodd;clip-rule:evenodd;stroke-linejoin:round;stroke-miterlimit:2;">
    <g transform="matrix(1,0,0,1,-205.13847,0.00908)">
        <path d="M218.951,64.038C219.216,62.743 219.553,61.463 219.959,60.205L219.983,60.131C221.816,54.445 225.029,49.301 229.335,45.16C236.977,37.873 247.421,34.789 258.481,34.953C269.542,34.788 279.988,37.872 287.63,45.16C291.936,49.301 295.15,54.445 296.983,60.131L297.007,60.205C297.86,62.842 298.401,65.571 298.619,68.334C301.444,68.479 303.603,68.534 305.455,68.674C306.086,68.747 306.688,68.983 307.2,69.358C308.33,70.109 309.231,71.474 309.477,74.027C310.175,80.51 309.713,87.067 308.113,93.388C307.929,94.104 307.588,94.769 307.113,95.336C306.239,96.198 305.096,96.737 303.875,96.863C301.847,97.221 300.439,97.408 297.708,97.663C295.432,106.771 289.884,114.732 282.126,120.019C274.849,124.797 267.126,125.668 258.482,125.668C250.242,125.668 242.114,124.797 234.837,120.019C227.069,114.725 221.517,106.751 219.246,97.629C216.746,97.394 215.377,97.209 213.44,96.867C212.219,96.741 211.076,96.202 210.202,95.34C209.728,94.773 209.386,94.108 209.202,93.392C207.602,87.07 207.141,80.514 207.839,74.031C208.084,71.478 208.986,70.113 210.115,69.362C210.628,68.987 211.229,68.751 211.86,68.678C213.635,68.543 215.692,68.488 218.344,68.356C218.456,66.905 218.659,65.463 218.951,64.038Z" style="fill:white;fill-rule:nonzero;"/>
        <path d="M220.742,68.391C221.875,53.874 232.445,41.723 246.666,38.591C250.063,37.783 253.541,37.366 257.033,37.347C260.56,37.24 264.088,37.465 267.573,38.018C274.295,39.074 280.571,42.049 285.645,46.582C291.737,52.296 295.506,60.066 296.224,68.387C296.256,69.691 297.32,70.755 298.624,70.787C299.937,70.777 301.014,69.7 301.024,68.387C300.35,59.929 296.952,51.914 291.341,45.549C286.127,39.82 279.302,35.797 271.765,34.01C264.009,32.172 255.956,31.961 248.114,33.39C240.451,34.67 233.33,38.172 227.638,43.459C220.835,50.065 216.672,58.933 215.938,68.387C215.948,69.7 217.025,70.777 218.338,70.787C219.644,70.761 220.712,69.693 220.738,68.387L220.742,68.391Z" style="fill:rgb(33,23,21);fill-rule:nonzero;"/>
        <path d="M216.475,96.136C219.294,110.98 230.667,123.867 245.662,126.946C253.387,128.428 261.31,128.57 269.083,127.366C276.571,126.287 283.527,122.859 288.946,117.58C294.876,111.767 298.902,104.287 300.49,96.136C300.805,94.87 300.062,93.562 298.814,93.184C297.546,92.846 296.222,93.598 295.862,94.86C293.381,107.924 283.798,119.338 270.572,122.234C267.227,122.907 263.825,123.247 260.413,123.248C256.806,123.363 253.196,123.205 249.613,122.778C242.709,121.961 236.262,118.892 231.275,114.049C226.02,108.831 222.471,102.138 221.1,94.86C220.739,93.598 219.415,92.847 218.147,93.184C216.895,93.557 216.15,94.869 216.471,96.136L216.475,96.136Z" style="fill:rgb(33,23,21);fill-rule:nonzero;"/>
        <path d="M247.986,78.891C248.716,81.264 248.24,86.722 243.745,87.191C237.803,87.155 237.487,80.556 239.487,77.453C241.124,74.908 245.939,73.852 247.986,78.891Z" style="fill:rgb(33,23,21);fill-rule:nonzero;"/>
        <path d="M279.194,78.891C279.925,81.264 279.449,86.722 274.953,87.191C269.012,87.155 268.696,80.556 270.696,77.453C272.333,74.908 277.148,73.852 279.194,78.891Z" style="fill:rgb(33,23,21);fill-rule:nonzero;"/>
        <path d="M298.176,100.015C302.157,99.632 307.651,99.661 309.797,95.625C310.66,93.613 311.2,91.477 311.397,89.297C311.787,86.961 312.033,84.603 312.134,82.237C312.223,79.819 312.163,77.398 311.957,74.987C311.95,72.949 311.397,70.95 310.357,69.197C309.16,67.466 307.231,66.378 305.13,66.251C303.065,66.079 300.985,66.051 298.916,65.951C295.828,65.801 295.836,70.601 298.916,70.751C300.655,70.836 302.397,70.894 304.136,70.99C304.657,70.976 305.176,71.059 305.667,71.234C305.99,71.403 306.26,71.66 306.445,71.974C307.222,73.241 307.17,74.974 307.257,76.401C307.381,78.344 307.406,80.292 307.332,82.238C307.288,85.794 306.773,89.329 305.8,92.75C305.339,94.184 304.244,94.374 302.864,94.614C301.309,94.885 299.748,95.064 298.177,95.214C296.874,95.249 295.812,96.311 295.777,97.614C295.786,98.927 296.864,100.005 298.177,100.014L298.176,100.015Z" style="fill:rgb(33,23,21);fill-rule:nonzero;"/>
        <path d="M219.14,95.215C217.57,95.064 216.008,94.886 214.454,94.615C213.197,94.396 212.03,94.241 211.568,92.923C211.046,91.184 210.68,89.401 210.475,87.597C210.206,85.822 210.039,84.032 209.975,82.238C209.902,80.37 209.929,78.499 210.037,76.638C210.122,75.167 210.075,73.438 210.788,72.103C210.967,71.803 211.205,71.543 211.488,71.338C212.012,71.081 212.594,70.963 213.177,70.995C214.916,70.9 216.657,70.841 218.397,70.756C221.472,70.606 221.49,65.805 218.397,65.956C216.328,66.056 214.247,66.085 212.183,66.256C210.082,66.384 208.153,67.471 206.955,69.202C205.915,70.955 205.362,72.954 205.355,74.992C205.149,77.403 205.09,79.824 205.178,82.242C205.28,84.608 205.526,86.966 205.915,89.302C206.114,91.483 206.655,93.618 207.52,95.63C209.667,99.666 215.16,99.637 219.141,100.02C220.454,100.011 221.532,98.933 221.541,97.62C221.514,96.314 220.447,95.247 219.141,95.22L219.14,95.215Z" style="fill:rgb(33,23,21);fill-rule:nonzero;"/>
        <path d="M318.74,30.863L330.075,30.863C331.788,31.02 333.515,30.871 335.175,30.422C336.908,29.784 338.311,28.471 339.064,26.785C339.842,25.029 339.685,23.133 339.685,21.258L339.685,9.97C339.842,8.241 339.731,6.498 339.356,4.803C338.79,3.041 337.539,1.578 335.887,0.744C334.662,0.198 333.327,-0.057 331.987,0L287.54,0C286.157,-0.065 284.779,0.216 283.532,0.817C281.901,1.693 280.686,3.184 280.158,4.958C279.639,6.732 279.882,8.767 279.882,10.594L279.882,22.581C279.723,24.383 280.122,26.19 281.024,27.758C282.046,29.307 283.652,30.379 285.474,30.729C287.384,30.939 289.309,30.984 291.227,30.863L305.518,30.863C305.887,30.883 306.258,30.883 306.627,30.863C306.777,30.878 306.928,30.878 307.078,30.863C306.589,29.085 306.155,28.598 305.778,29.401L305.527,29.834C304.318,31.923 303.111,34.014 301.904,36.105C300.357,38.785 304.504,41.205 306.049,38.527C307.214,36.509 308.381,34.491 309.549,32.472C310.197,31.609 310.611,30.593 310.749,29.523C310.767,28.439 310.263,27.409 309.396,26.759C308.008,25.731 305.969,26.059 304.33,26.059L287.893,26.059C286.716,26.059 285.535,26.134 284.917,24.932C284.356,23.841 284.683,22.105 284.683,20.897L284.683,9.381C284.683,7.496 284.301,4.95 286.827,4.796C288.685,4.683 290.584,4.796 292.444,4.796L331.95,4.796C332.611,4.713 333.283,4.822 333.884,5.109C334.976,5.782 334.884,6.882 334.884,8.023L334.884,13.032C334.884,16.571 334.919,20.112 334.884,23.651C334.855,26.767 331.396,26.058 329.184,26.058L318.74,26.058C315.651,26.058 315.646,30.858 318.74,30.858L318.74,30.863Z" style="fill:rgb(33,23,21);fill-rule:nonzero;"/>
    </g>
</svg>
