<?xml version="1.0" encoding="UTF-8" standalone="no"?>
<!DOCTYPE svg PUBLIC "-//W3C//DTD SVG 1.1//EN" "http://www.w3.org/Graphics/SVG/1.1/DTD/svg11.dtd">
<svg width="100%" height="100%" viewBox="0 0 127 112" version="1.1" xmlns="http://www.w3.org/2000/svg" xmlns:xlink="http://www.w3.org/1999/xlink" xml:space="preserve" xmlns:serif="http://www.serif.com/" style="fill-rule:evenodd;clip-rule:evenodd;stroke-linejoin:round;stroke-miterlimit:2;">
    <g transform="matrix(1,0,0,1,-224.935871,-0.059238)">
        <path d="M321.584,33.874C312.715,25.932 300.131,20.947 285.3,20.947C277.329,20.878 269.429,22.452 262.094,25.571C259.944,26.582 259.248,26.348 258.726,26.203L256.932,25.703C254.246,24.887 251.506,24.259 248.732,23.824C246.343,23.442 243.926,23.255 241.507,23.266C240.312,23.301 239.348,24.293 239.348,25.489C239.348,25.754 239.395,26.017 239.488,26.266C240.622,29.399 244.217,37.523 244.217,37.523C244.66,38.33 244.553,39.333 243.951,40.029C241.005,43.45 237.011,48.874 236.202,50.09L235.035,51.843C234.712,52.326 234.212,52.664 233.644,52.785C232.652,52.997 231.725,53.211 230.67,53.456C230.097,53.545 229.552,53.766 229.079,54.103C228.571,54.514 228.242,55.106 228.159,55.754C227.374,64.603 226.598,73.597 228.578,82.29C228.618,82.593 228.748,82.878 228.95,83.107C229.195,83.301 229.486,83.429 229.795,83.478C232.022,84.029 234.287,84.412 236.571,84.623C237.324,84.693 238.882,84.776 239.564,86.023L239.628,86.141C246.928,100.811 263.393,108.772 285.298,108.772C320.435,108.772 335.574,91.798 335.574,64.453C335.516,52.731 330.416,41.582 321.584,33.874Z" style="fill:white;fill-rule:nonzero;"/>
        <path d="M271.541,12.625C269.027,16.399 267.69,20.836 267.7,25.371C267.694,27.855 268.104,30.322 268.913,32.671C280.518,30.045 298.045,31.039 310.642,36.841C312.653,33.349 313.712,29.389 313.712,25.359C313.712,12.738 303.326,2.352 290.705,2.352C283.007,2.352 275.802,6.215 271.542,12.627L271.541,12.625Z" style="fill:rgb(255,207,220);fill-rule:nonzero;"/>
        <path d="M337.686,57.654C337.754,57.593 338.463,57.028 338.149,57.254C338.386,57.084 338.633,56.926 338.887,56.782C338.997,56.72 339.774,56.401 339.214,56.599C339.448,56.516 339.68,56.436 339.921,56.375C340.037,56.346 340.153,56.32 340.27,56.298C340.541,56.252 340.502,56.255 340.154,56.305C340.401,56.247 340.657,56.234 340.909,56.265C341.063,56.265 341.217,56.276 341.37,56.291C341.095,56.25 341.092,56.254 341.36,56.301C341.48,56.327 341.598,56.356 341.716,56.39C341.983,56.48 341.925,56.447 341.544,56.29C341.719,56.42 341.91,56.528 342.112,56.609C342.325,56.759 342.312,56.743 342.069,56.562C342.169,56.644 342.261,56.729 342.352,56.819C342.444,56.909 342.53,57.005 342.612,57.104C342.432,56.872 342.415,56.868 342.56,57.092C342.455,56.804 342.447,56.786 342.534,57.039C342.595,57.31 342.6,57.274 342.548,56.939C342.556,57.056 342.556,57.173 342.548,57.29C342.606,56.941 342.606,56.898 342.548,57.162C342.464,57.413 342.479,57.38 342.596,57.062C342.456,57.281 342.481,57.259 342.672,56.996C342.483,57.175 342.511,57.166 342.756,56.969C342.518,57.102 342.551,57.104 342.856,56.975C342.407,57.107 343.373,57.024 342.756,56.991C342.57,56.981 342.644,56.991 342.977,57.017C342.726,56.938 342.758,56.96 343.077,57.085C342.975,57.035 342.877,56.978 342.784,56.913C343.044,57.122 343.08,57.137 342.893,56.957C343.093,57.229 343.126,57.254 342.993,57.032C343.111,57.292 343.122,57.277 343.026,56.985C343.044,57.252 343.044,57.244 343.026,56.962C343.04,56.675 343.033,56.678 343.004,56.969C343.035,56.83 343.074,56.692 343.122,56.558C343.022,56.79 343.032,56.775 343.16,56.513C343.227,56.389 343.302,56.269 343.383,56.153C343.222,56.358 343.231,56.356 343.412,56.147C343.477,56.088 344.122,55.504 343.731,55.814C343.958,55.64 344.194,55.478 344.438,55.329C344.695,55.164 345.35,54.629 345.67,54.647C345.345,54.78 345.305,54.8 345.549,54.706C345.649,54.669 345.756,54.634 345.86,54.601C346.075,54.534 346.293,54.477 346.512,54.43C346.645,54.4 347.404,54.197 346.757,54.369C347.014,54.323 347.274,54.301 347.535,54.305C348.135,54.273 348.735,54.282 349.335,54.305C350.648,54.295 351.725,53.218 351.735,51.905C351.709,50.599 350.641,49.531 349.335,49.505C346.816,49.295 344.293,49.863 342.107,51.131C340.769,51.874 339.662,52.971 338.907,54.301C338.036,55.931 338.027,57.891 338.882,59.53C339.704,60.904 341.193,61.748 342.794,61.748C344.477,61.748 346.029,60.816 346.819,59.33C348.319,56.219 346.287,52.996 343.278,51.857C340.1,50.657 336.654,52.131 334.291,54.257C333.369,55.192 333.369,56.716 334.291,57.651C335.235,58.554 336.741,58.554 337.685,57.651L337.686,57.654Z" style="fill:rgb(33,23,21);fill-rule:nonzero;"/>
        <path d="M259.43,105.114C259.547,106.053 259.99,106.921 260.681,107.567C261.034,107.995 261.428,108.387 261.857,108.739C262.884,109.624 264.088,110.279 265.389,110.661C267.748,111.275 270.236,111.177 272.539,110.38C273.577,110.094 274.302,109.142 274.302,108.065C274.302,106.748 273.218,105.665 271.901,105.665C271.685,105.665 271.471,105.694 271.263,105.751C270.873,105.887 270.476,106.001 270.073,106.09L269.761,106.153C269.714,106.161 269.193,106.233 269.604,106.187C269.978,106.144 269.597,106.187 269.521,106.194C269.414,106.205 269.306,106.214 269.198,106.222C268.765,106.255 268.331,106.26 267.898,106.239C267.79,106.233 267.683,106.226 267.576,106.217C267.498,106.211 267.125,106.159 267.497,106.217C267.869,106.275 267.497,106.217 267.424,106.202C267.295,106.18 267.167,106.155 267.039,106.127C266.839,106.082 266.639,106.029 266.439,105.968C266.339,105.938 266.248,105.902 266.152,105.868C266.03,105.822 265.901,105.798 265.77,105.798C265.176,105.798 264.687,106.287 264.687,106.881C264.687,107.476 265.176,107.964 265.77,107.964C266.364,107.964 266.853,107.476 266.853,106.881C266.853,106.494 266.645,106.135 266.309,105.942C265.948,105.699 265.532,105.528 265.167,105.279C264.857,105.067 265.248,105.279 265.246,105.342C265.246,105.306 265.021,105.151 264.988,105.122C264.8,104.955 264.62,104.779 264.448,104.597C264.299,104.439 264.163,104.271 264.02,104.108C263.812,103.87 264.276,104.48 264.11,104.221C264.043,104.116 263.966,104.015 263.897,103.91L264.225,105.122L264.225,105.111C264.225,103.794 263.142,102.711 261.825,102.711C260.508,102.711 259.425,103.794 259.425,105.111L259.43,105.114Z" style="fill:rgb(33,23,21);fill-rule:nonzero;"/>
        <path d="M303.344,109.745C306.194,110.892 309.374,110.921 312.244,109.825C314.914,108.712 316.954,106.467 317.808,103.703C318.146,102.435 317.394,101.111 316.132,100.751C314.865,100.429 313.553,101.174 313.18,102.427C313.135,102.574 313.08,102.719 313.035,102.867C312.946,103.186 313.219,102.505 313.071,102.792C312.952,103.025 312.841,103.258 312.705,103.482C312.632,103.602 312.546,103.714 312.474,103.835C312.31,104.107 312.756,103.51 312.548,103.746C312.386,103.93 312.229,104.116 312.055,104.289C311.881,104.462 311.699,104.611 311.519,104.77C311.298,104.97 311.926,104.487 311.565,104.73C311.478,104.788 311.393,104.849 311.306,104.906C311.09,105.047 310.868,105.178 310.641,105.3C310.551,105.348 310.459,105.391 310.37,105.44C310.005,105.64 310.758,105.32 310.47,105.4C310,105.533 309.543,105.664 309.07,105.773C308.746,105.847 309.526,105.735 309.186,105.76C309.036,105.771 308.886,105.79 308.735,105.799C308.454,105.817 308.172,105.822 307.89,105.817C307.608,105.812 307.305,105.789 307.012,105.766C306.719,105.743 306.858,105.789 307.052,105.776C306.882,105.765 306.715,105.735 306.552,105.686C305.894,105.552 305.249,105.361 304.624,105.117C303.355,104.772 302.026,105.527 301.672,106.793C301.359,108.059 302.101,109.365 303.348,109.745L303.344,109.745Z" style="fill:rgb(33,23,21);fill-rule:nonzero;"/>
        <path d="M254.368,49.412C251.856,49.412 250.12,51.657 250.12,54.282C250.12,57.322 251.766,59.242 254.372,59.241C257.039,59.241 258.621,57.319 258.62,54.279C258.619,51.636 256.872,49.411 254.368,49.412Z" style="fill:rgb(33,23,21);fill-rule:nonzero;"/>
        <path d="M312.332,30.163C324.861,37.401 333.258,50.246 333.172,64.909C333.222,69.94 332.543,74.951 331.159,79.788C330.826,80.913 330.449,82.023 330.029,83.118C329.66,84.072 329.244,85.006 328.78,85.918C328.257,86.96 327.685,87.976 327.062,88.965C326.775,89.42 326.477,89.868 326.17,90.309C326.028,90.509 325.884,90.711 325.738,90.914C325.665,91.014 325.591,91.114 325.517,91.214C325.042,91.851 325.645,91.057 325.365,91.414C319.223,99.264 310.121,103.282 300.377,105.114C293.866,106.277 287.239,106.658 280.637,106.247C274.065,105.96 267.58,104.631 261.425,102.311C256.25,100.343 251.555,97.292 247.655,93.363C245.779,91.438 244.148,89.288 242.8,86.963C242.019,85.619 241.48,84.11 240.126,83.215C238.726,82.289 237.038,82.293 235.431,82.104C234.505,81.996 233.585,81.841 232.67,81.663C231.81,81.583 230.967,81.374 230.17,81.042L231.031,81.903C230.723,81.155 230.536,80.362 230.478,79.555C230.308,78.598 230.171,77.636 230.068,76.669C229.851,74.543 229.74,72.407 229.737,70.269C229.717,66.054 230.037,61.846 230.401,57.648C230.393,57.085 230.453,56.523 230.58,55.974C231.041,55.567 232.437,55.512 233.036,55.374C233.947,55.233 234.829,54.942 235.646,54.514C236.486,53.908 237.181,53.122 237.679,52.214C238.841,50.462 240.087,48.773 241.358,47.099C242.321,45.832 243.305,44.58 244.31,43.341C245.474,41.914 246.872,40.607 246.896,38.63C246.918,36.914 245.647,34.83 244.972,33.277C244,31.038 243.072,28.895 242.186,26.622C242.064,26.276 241.923,25.938 241.764,25.608C241.605,25.278 241.738,25.551 241.757,25.583C241.776,25.615 241.548,25.646 241.519,25.673C241.619,25.573 242.297,25.665 242.45,25.666C244.421,25.707 246.387,25.879 248.335,26.18C251.668,26.652 254.835,27.729 258.091,28.517C259.315,28.822 260.603,28.743 261.781,28.292C264.005,27.47 266.144,26.503 268.417,25.797C271.357,24.883 270.102,20.248 267.141,21.169C265.578,21.654 264.035,22.195 262.52,22.813C261.79,23.113 261.077,23.463 260.335,23.726C260.142,23.795 259.945,23.852 259.747,23.904C259.426,23.971 259.411,23.98 259.703,23.931C259.615,23.937 259.526,23.937 259.438,23.931C259.213,24.05 259.958,24.07 259.587,23.947C259.504,23.919 259.416,23.903 259.332,23.876C259.05,23.784 258.757,23.719 258.472,23.641C257.418,23.352 256.366,23.055 255.311,22.773C252.12,21.93 248.864,21.351 245.578,21.042C242.663,20.755 238.994,20.329 237.451,23.448C236.364,25.642 237.501,27.804 238.345,29.848C239.168,31.848 240.019,33.832 240.88,35.813C241.145,36.424 242.191,38.193 242.126,38.674C242.184,38.244 241.488,39.243 241.375,39.38C240.985,39.851 240.599,40.325 240.217,40.804C239.31,41.937 238.417,43.086 237.539,44.24C236.401,45.73 235.256,47.225 234.201,48.777C233.882,49.247 233.546,50.177 233.081,50.461C232.519,50.656 231.935,50.782 231.343,50.837C230.567,50.984 229.802,51.181 229.051,51.427C225.401,52.783 225.661,56.779 225.401,60.022C225.134,63.35 224.93,66.686 224.936,70.027C224.93,73.486 225.208,76.94 225.769,80.354C226.014,81.818 226.148,83.688 227.262,84.802C228.376,85.916 230.381,86.102 231.849,86.368C233.415,86.655 234.995,86.858 236.579,87.015C237.292,87.085 237.406,87.049 237.846,87.897C238.836,89.791 239.991,91.595 241.298,93.287C253.863,109.648 276.951,112.842 296.192,110.556C304.699,109.546 313.276,107.276 320.448,102.424C326.677,98.194 331.51,92.206 334.33,85.224C337.404,77.441 338.593,69.04 337.8,60.709C336.683,49.412 331.24,38.973 322.617,31.59C320.177,29.491 317.544,27.626 314.755,26.019C312.075,24.471 309.655,28.619 312.332,30.163Z" style="fill:rgb(33,23,21);fill-rule:nonzero;"/>
        <path d="M270.622,29.967C270.276,28.457 270.101,26.912 270.101,25.363C270.101,14.056 279.405,4.752 290.712,4.752C302.019,4.752 311.323,14.056 311.323,25.363C311.323,28.337 310.679,31.277 309.436,33.979C308.81,35.122 309.191,36.574 310.297,37.262C311.436,37.916 312.91,37.53 313.581,36.401C319.439,24.252 314.661,9.448 302.806,3.016C291.612,-2.899 277.631,0.297 270.119,10.489C265.811,16.482 264.305,24.058 265.994,31.243C266.681,34.254 271.31,32.979 270.622,29.967Z" style="fill:rgb(33,23,21);fill-rule:nonzero;"/>
        <path d="M298.366,16.311L298.505,16.369L297.931,16.127C298.528,16.387 299.092,16.718 299.609,17.114L299.123,16.739C299.71,17.198 300.237,17.728 300.692,18.318L300.317,17.833C300.86,18.55 301.311,19.333 301.66,20.162L301.419,19.588C301.473,19.72 301.526,19.852 301.577,19.988C301.76,20.582 302.151,21.091 302.677,21.422C303.237,21.743 303.903,21.83 304.527,21.664C305.129,21.496 305.643,21.102 305.961,20.564C306.294,20.008 306.382,19.338 306.203,18.715C305.619,17.113 304.737,15.635 303.603,14.361C303.054,13.776 302.444,13.251 301.783,12.796C301.112,12.345 300.392,11.973 299.635,11.689C299.011,11.517 298.344,11.605 297.786,11.931C296.649,12.595 296.261,14.077 296.925,15.214L297.3,15.7C297.593,15.994 297.958,16.207 298.359,16.317L298.366,16.311Z" style="fill:rgb(33,23,21);fill-rule:nonzero;"/>
        <path d="M316.622,37.355C310.508,33.68 303.736,31.232 296.686,30.146C289.77,28.897 282.717,28.58 275.717,29.206C271.868,29.516 268.067,30.265 264.387,31.437C261.474,32.414 262.723,37.052 265.663,36.066C271.664,34.221 277.938,33.424 284.21,33.71C290.953,33.813 297.646,34.88 304.086,36.879C307.642,37.979 311.041,39.532 314.2,41.5C316.818,43.157 319.229,39.005 316.623,37.355L316.622,37.355Z" style="fill:rgb(33,23,21);fill-rule:nonzero;"/>
    </g>
</svg>
