<?xml version="1.0" encoding="UTF-8" standalone="no"?>
<!DOCTYPE svg PUBLIC "-//W3C//DTD SVG 1.1//EN" "http://www.w3.org/Graphics/SVG/1.1/DTD/svg11.dtd">
<svg width="100%" height="100%" viewBox="0 0 122 138" version="1.1" xmlns="http://www.w3.org/2000/svg" xmlns:xlink="http://www.w3.org/1999/xlink" xml:space="preserve" xmlns:serif="http://www.serif.com/" style="fill-rule:evenodd;clip-rule:evenodd;stroke-linejoin:round;stroke-miterlimit:2;">
    <g transform="matrix(1,0,0,1,-0.016571,-209.978548)">
        <path d="M96.95,345.075C92.899,340.517 90.316,327.475 90.45,326.043C91.069,319.543 99.041,313.121 103.395,308.372C110.105,301.054 119.868,286.78 119.311,266.932C118.848,256.316 115.489,246.026 109.6,237.181C96.129,217.368 80.933,213.957 71.566,212.8C62.569,211.802 53.461,212.897 44.957,216C27.834,221.976 19.973,234.1 18.631,236.8C15.709,242.675 14.155,247.024 13.713,254.656C13.309,257.942 13.191,261.257 13.359,264.563C13.136,272.082 12.859,282.513 5.979,286.24C4.59,286.927 3.468,288.055 2.788,289.448C1.142,293.191 4.367,294.869 6.366,297.024C7.621,298.413 8.519,300.086 8.982,301.9C9.214,305.545 9.726,309.167 10.512,312.734C11.018,315.25 11.842,317.692 12.964,320C14.553,323.36 17.387,325.974 20.864,327.288C26.557,329.37 34.347,330.11 39.39,328.744C40.599,328.425 41.871,329.059 42.343,330.217C42.417,330.406 45.579,338.628 45.396,345.072L96.95,345.075Z" style="fill:white;fill-rule:nonzero;"/>
        <path d="M61.078,231.185C62.455,231.067 63.82,231.53 64.84,232.462C66.651,234.348 66.832,237.297 65.265,239.39C63.403,241.47 60.198,241.735 58.019,239.99C55.995,238.172 55.778,235.032 57.532,232.952C58.448,231.936 59.716,231.304 61.078,231.185Z" style="fill:rgb(61,141,204);fill-rule:nonzero;"/>
        <path d="M70.432,269.9C71.809,269.781 73.174,270.245 74.194,271.177C76.005,273.063 76.186,276.012 74.619,278.105C72.757,280.185 69.552,280.45 67.373,278.705C65.349,276.887 65.132,273.747 66.886,271.667C67.802,270.651 69.069,270.019 70.432,269.9Z" style="fill:rgb(61,141,204);fill-rule:nonzero;"/>
        <path d="M51.754,255.247C53.131,255.128 54.496,255.592 55.516,256.524C57.327,258.41 57.508,261.359 55.941,263.452C54.079,265.532 50.874,265.797 48.695,264.052C46.671,262.234 46.454,259.094 48.208,257.014C49.124,255.998 50.391,255.366 51.754,255.247Z" style="fill:rgb(61,141,204);fill-rule:nonzero;"/>
        <path d="M98.648,343.378C98.017,342.564 97.471,341.687 97.019,340.761C96.485,339.689 96.019,338.585 95.625,337.454C94.747,334.977 94.028,332.447 93.472,329.879C93.259,328.913 93.086,327.943 92.915,326.968C92.829,326.475 92.922,327.075 92.915,326.979C92.902,326.851 92.88,326.723 92.873,326.594C92.856,326.413 92.849,326.23 92.853,326.048C93.053,323.291 95.253,320.557 96.971,318.539C100.645,314.234 104.971,310.569 108.45,306.088C112.002,301.543 114.935,296.546 117.173,291.229C122.996,277.286 123.168,261.61 117.652,247.543C112.625,234.726 103.126,222.904 90.924,216.277C81.178,211.162 70.118,209.089 59.181,210.328C45.581,211.8 32.268,217.399 22.738,227.382C20.372,229.751 18.337,232.429 16.688,235.342C13.668,240.969 11.863,247.168 11.388,253.537C11.239,255.501 11,257.454 10.928,259.426C10.858,261.342 10.998,263.258 10.941,265.171C10.918,268.034 10.715,270.893 10.332,273.73C10.019,276.457 9.131,279.087 7.726,281.446C6.091,283.934 3.008,284.746 1.286,287.246C-0.7,290.057 -0.32,293.94 2.174,296.313C4.131,298.401 6.418,300.041 6.664,303.113C7.256,310.52 8.433,318.921 13.321,324.823C17.691,330.099 25.276,331.51 31.779,331.808C33.429,331.892 35.084,331.841 36.726,331.656C37.84,331.525 39.049,331.205 40.114,331.115C40.1,331.115 39.981,330.715 40.168,331.222C40.302,331.581 40.428,331.944 40.551,332.307C40.94,333.454 41.294,334.612 41.613,335.782C42.515,338.8 42.983,341.932 43.001,345.082C42.944,348.172 47.744,348.172 47.801,345.082C47.757,339.784 46.699,334.544 44.684,329.644C44.145,328.104 42.897,326.912 41.334,326.444C39.707,325.995 38.152,326.681 36.547,326.878C33.222,327.236 29.861,327.068 26.589,326.378C23.801,325.826 20.854,325.138 18.609,323.333C16.115,321.124 14.355,318.205 13.565,314.969C12.539,311.376 11.861,307.692 11.539,303.969C11.467,302.306 11.121,300.666 10.516,299.116C9.819,297.495 8.808,296.028 7.541,294.8C5.864,293.164 3.57,291.825 5.536,289.564C6.514,288.44 8.053,287.864 9.204,286.922C10.281,286.014 11.209,284.941 11.954,283.745C15.115,278.808 15.482,272.431 15.69,266.745C15.821,263.133 15.601,259.538 15.968,255.93C16.178,252.599 16.677,249.293 17.461,246.049C18.517,242.126 20.236,238.411 22.543,235.067C22.76,234.762 22.984,234.461 23.208,234.161C23.263,234.075 23.326,233.994 23.396,233.919C23.555,233.719 23.713,233.519 23.874,233.328C24.541,232.519 25.233,231.734 25.951,230.973C27.661,229.153 29.512,227.47 31.486,225.94C36.843,221.887 42.923,218.889 49.4,217.107C56.774,214.944 64.514,214.318 72.14,215.267C71.702,215.21 72.069,215.257 72.282,215.288C72.495,215.319 72.682,215.345 72.882,215.376C73.366,215.449 73.849,215.527 74.332,215.611C75.29,215.779 76.243,215.972 77.192,216.189C79.325,216.679 81.422,217.314 83.468,218.089C94.842,222.412 104.468,232.157 110.276,242.925C117.323,255.868 118.784,271.145 114.318,285.189C112.537,290.624 109.964,295.767 106.684,300.452C103.689,304.488 100.359,308.264 96.73,311.741C94.304,314.086 92.156,316.704 90.33,319.541C89.087,321.599 87.865,324.252 88.092,326.72C88.603,331.349 89.769,335.882 91.554,340.183C92.412,342.573 93.665,344.803 95.262,346.778C97.287,349.118 100.67,345.71 98.657,343.384L98.648,343.378Z" style="fill:rgb(33,23,21);fill-rule:nonzero;"/>
        <path d="M67.375,238.958L77.375,238.958L75.675,238.258C79.706,242.279 83.733,246.305 87.755,250.338C89.942,252.525 93.337,249.131 91.149,246.938C88.98,244.77 86.814,242.601 84.649,240.43C83.617,239.398 82.584,238.365 81.549,237.33C80.5,236.282 79.217,234.43 77.692,234.195C76.328,234.079 74.958,234.065 73.592,234.152L67.375,234.152C64.286,234.152 64.281,238.952 67.375,238.952L67.375,238.958Z" style="fill:rgb(33,23,21);fill-rule:nonzero;"/>
        <path d="M115.505,246.238L67.775,246.238C64.686,246.238 64.681,251.038 67.775,251.038L115.505,251.038C118.594,251.038 118.599,246.238 115.505,246.238Z" style="fill:rgb(33,23,21);fill-rule:nonzero;"/>
        <path d="M58.509,262.58L80.057,262.58C81.167,262.58 82.722,262.823 83.744,262.373C84.764,261.737 85.666,260.928 86.409,259.984L88.99,257.4L94.152,252.238C96.339,250.051 92.946,246.656 90.758,248.844L81.122,258.48L82.822,257.78L58.509,257.78C55.421,257.78 55.416,262.58 58.509,262.58Z" style="fill:rgb(33,23,21);fill-rule:nonzero;"/>
        <path d="M97.318,262.7L86.836,273.179L88.536,272.479L76.712,272.479C73.623,272.479 73.618,277.279 76.712,277.279L85.664,277.279C86.875,277.279 88.664,277.579 89.744,276.951C90.781,276.17 91.722,275.268 92.544,274.263L95.165,271.643L100.714,266.093C102.901,263.906 99.508,260.511 97.32,262.699L97.318,262.7Z" style="fill:rgb(33,23,21);fill-rule:nonzero;"/>
        <path d="M61.078,233.585C61.364,233.573 61.644,233.585 61.93,233.598C62.442,233.621 61.354,233.465 61.849,233.589C61.94,233.612 62.032,233.627 62.123,233.65C62.259,233.683 62.39,233.731 62.523,233.767C63.005,233.897 62.023,233.5 62.467,233.735C62.567,233.79 62.674,233.835 62.776,233.898C62.878,233.961 63.063,234.137 63.189,234.166L62.927,233.966C63.001,234.028 63.072,234.092 63.142,234.158C63.226,234.239 63.307,234.324 63.385,234.411C63.435,234.468 63.485,234.536 63.535,234.59C63.067,234.112 63.314,234.301 63.435,234.485C63.587,234.668 63.701,234.878 63.773,235.105C63.845,235.332 63.546,234.496 63.667,234.859C63.717,235.01 63.772,235.159 63.814,235.311C63.868,235.504 63.905,235.698 63.944,235.894C64.036,236.352 63.897,235.263 63.918,235.73C63.923,235.85 63.934,235.969 63.936,236.089C63.936,236.289 63.93,236.489 63.917,236.689C63.888,237.156 64.037,236.066 63.942,236.524C63.91,236.679 63.882,236.834 63.842,236.987C63.792,237.177 63.709,237.358 63.659,237.546C63.83,236.908 63.813,237.193 63.707,237.4C63.654,237.5 63.596,237.606 63.535,237.705C63.494,237.772 63.448,237.835 63.407,237.905C63.168,238.285 63.807,237.465 63.497,237.787C63.324,237.967 63.141,238.13 62.963,238.304C62.752,238.512 63.492,237.943 63.13,238.17C63.03,238.23 62.94,238.296 62.841,238.354C62.676,238.454 62.497,238.521 62.332,238.616C62.932,238.274 62.687,238.47 62.477,238.542C62.368,238.58 62.258,238.614 62.147,238.642C61.922,238.704 61.696,238.735 61.469,238.784C62.316,238.603 61.554,238.757 61.3,238.757C61.107,238.757 60.914,238.726 60.723,238.728C61.414,238.721 61.144,238.793 60.906,238.748C60.793,238.726 60.681,238.701 60.57,238.673C60.496,238.654 60.422,238.633 60.349,238.61C60.13,238.543 59.72,238.289 60.388,238.654C60.221,238.563 60.045,238.491 59.881,238.393C59.781,238.334 59.69,238.269 59.594,238.207C59.221,237.964 60.038,238.607 59.719,238.298C59.574,238.157 59.425,238.022 59.291,237.87C59.117,237.67 59.112,237.46 59.367,237.981C59.299,237.843 59.187,237.716 59.108,237.581C58.989,237.376 58.808,236.774 59.038,237.517C58.967,237.291 58.875,237.075 58.816,236.845C58.757,236.615 58.75,235.967 58.774,236.789C58.767,236.534 58.733,236.283 58.741,236.027C58.741,235.927 58.753,235.832 58.758,235.734C58.778,235.316 58.629,236.41 58.758,235.793C58.809,235.564 58.872,235.338 58.947,235.116C59.082,234.682 58.674,235.659 58.886,235.256C58.959,235.116 59.028,234.975 59.11,234.84C59.151,234.772 59.196,234.707 59.239,234.64C59.456,234.303 58.819,235.117 59.234,234.653C59.399,234.469 59.716,234.289 59.834,234.082L59.572,234.282C59.648,234.226 59.726,234.172 59.805,234.121C59.963,234.016 60.127,233.92 60.295,233.832C60.362,233.797 60.787,233.632 60.395,233.772C59.981,233.919 60.563,233.719 60.637,233.697C60.77,233.656 60.905,233.62 61.037,233.59C61.127,233.571 61.218,233.554 61.309,233.54C60.896,233.591 60.818,233.605 61.077,233.583C62.394,233.583 63.477,232.5 63.477,231.183C63.477,229.866 62.394,228.783 61.077,228.783C57.109,228.934 53.927,232.24 53.927,236.211C53.927,238.704 55.181,241.036 57.261,242.411C59.707,243.905 62.786,243.935 65.261,242.49C66.542,241.736 67.545,240.586 68.119,239.214C68.695,237.795 68.858,236.242 68.589,234.735C68.346,233.201 67.606,231.788 66.484,230.714C65.013,229.375 63.065,228.679 61.078,228.783C59.761,228.783 58.678,229.866 58.678,231.183C58.678,232.5 59.761,233.583 61.078,233.583C61.078,233.583 61.078,233.585 61.078,233.585Z" style="fill:rgb(33,23,21);fill-rule:nonzero;"/>
        <path d="M70.432,272.3C70.718,272.287 70.999,272.3 71.284,272.312C71.796,272.335 70.708,272.18 71.203,272.304C71.294,272.327 71.386,272.342 71.477,272.364C71.613,272.398 71.744,272.445 71.877,272.482C72.358,272.612 71.377,272.214 71.82,272.45C71.92,272.504 72.028,272.55 72.129,272.612C72.246,272.68 72.416,272.852 72.542,272.881L72.28,272.681C72.354,272.742 72.425,272.807 72.495,272.873C72.565,272.939 72.66,273.038 72.738,273.126C72.788,273.183 72.838,273.251 72.888,273.305C72.42,272.827 72.667,273.015 72.788,273.2C72.939,273.383 73.053,273.594 73.125,273.82C73.197,274.046 72.898,273.211 73.019,273.574C73.069,273.725 73.119,273.874 73.166,274.026C73.22,274.218 73.257,274.413 73.296,274.608C73.389,275.067 73.25,273.978 73.27,274.445C73.275,274.565 73.286,274.684 73.288,274.804C73.288,275.004 73.282,275.204 73.269,275.404C73.24,275.871 73.389,274.781 73.295,275.238C73.263,275.393 73.234,275.548 73.195,275.701C73.145,275.891 73.062,276.072 73.012,276.261C73.183,275.622 73.167,275.908 73.06,276.115C73.007,276.215 72.949,276.32 72.888,276.42C72.847,276.486 72.802,276.549 72.76,276.615C72.521,276.996 73.16,276.175 72.85,276.497C72.678,276.678 72.494,276.841 72.316,277.015C72.105,277.223 72.845,276.654 72.483,276.88C72.383,276.941 72.293,277.006 72.194,277.064C72.029,277.164 71.85,277.232 71.685,277.326C72.285,276.985 72.041,277.18 71.83,277.253C71.721,277.29 71.611,277.325 71.5,277.353C71.275,277.415 71.049,277.447 70.822,277.495C71.669,277.314 70.907,277.469 70.653,277.469C70.46,277.469 70.267,277.438 70.076,277.44C70.767,277.433 70.498,277.505 70.259,277.459C70.146,277.438 70.034,277.413 69.923,277.384C69.849,277.365 69.775,277.344 69.702,277.322C69.483,277.255 69.073,277.001 69.741,277.365C69.574,277.274 69.398,277.202 69.234,277.105C69.134,277.046 69.043,276.981 68.947,276.918C68.574,276.676 69.391,277.318 69.072,277.01C68.927,276.868 68.778,276.734 68.644,276.582C68.47,276.382 68.465,276.172 68.72,276.693C68.653,276.555 68.54,276.427 68.462,276.293C68.342,276.093 68.162,275.487 68.391,276.229C68.32,276.003 68.228,275.788 68.17,275.557C68.112,275.326 68.103,274.679 68.127,275.501C68.12,275.246 68.086,275.001 68.094,274.739C68.094,274.639 68.106,274.544 68.111,274.447C68.131,274.029 67.983,275.123 68.111,274.505C68.162,274.277 68.225,274.051 68.3,273.829C68.435,273.395 68.027,274.371 68.239,273.968C68.312,273.828 68.381,273.688 68.463,273.553C68.504,273.485 68.549,273.42 68.592,273.353C68.809,273.015 68.172,273.83 68.592,273.366C68.757,273.182 69.074,273.001 69.192,272.795L68.93,272.995C69.006,272.94 69.084,272.886 69.163,272.834C69.321,272.734 69.485,272.634 69.653,272.546C69.721,272.511 70.145,272.346 69.753,272.486C69.339,272.632 69.921,272.433 69.995,272.41C70.128,272.369 70.263,272.334 70.395,272.304C70.485,272.285 70.576,272.268 70.667,272.254C70.254,272.304 70.177,272.319 70.435,272.297C71.752,272.297 72.835,271.214 72.835,269.897C72.835,268.58 71.752,267.497 70.435,267.497C66.467,267.648 63.285,270.954 63.285,274.925C63.285,277.418 64.539,279.75 66.619,281.125C69.065,282.619 72.144,282.649 74.619,281.204C75.9,280.449 76.903,279.299 77.477,277.927C78.053,276.508 78.216,274.955 77.947,273.448C77.704,271.914 76.964,270.502 75.842,269.428C74.371,268.088 72.423,267.392 70.436,267.497C69.119,267.497 68.036,268.58 68.036,269.897C68.036,271.214 69.119,272.297 70.436,272.297L70.432,272.3Z" style="fill:rgb(33,23,21);fill-rule:nonzero;"/>
        <path d="M51.754,257.647C52.04,257.634 52.321,257.647 52.606,257.659C53.118,257.682 52.03,257.527 52.525,257.651C52.616,257.674 52.708,257.689 52.799,257.711C52.935,257.745 53.066,257.792 53.199,257.829C53.68,257.959 52.699,257.561 53.142,257.797C53.242,257.851 53.35,257.897 53.451,257.959C53.568,258.027 53.738,258.199 53.864,258.228L53.602,258.028C53.676,258.089 53.747,258.154 53.817,258.22C53.887,258.286 53.982,258.385 54.06,258.473C54.11,258.53 54.16,258.598 54.21,258.652C53.742,258.174 53.989,258.362 54.11,258.547C54.261,258.73 54.375,258.941 54.447,259.167C54.519,259.393 54.22,258.558 54.341,258.921C54.391,259.072 54.441,259.221 54.488,259.373C54.542,259.565 54.579,259.76 54.618,259.955C54.711,260.414 54.572,259.325 54.592,259.792C54.597,259.912 54.608,260.031 54.61,260.151C54.61,260.351 54.604,260.551 54.591,260.751C54.562,261.218 54.711,260.128 54.617,260.585C54.585,260.74 54.556,260.895 54.517,261.048C54.467,261.238 54.384,261.419 54.334,261.608C54.505,260.969 54.489,261.255 54.382,261.462C54.329,261.562 54.271,261.667 54.21,261.767C54.169,261.833 54.124,261.896 54.082,261.962C53.843,262.343 54.482,261.522 54.172,261.844C54,262.025 53.816,262.188 53.638,262.362C53.427,262.57 54.167,262.001 53.805,262.227C53.705,262.288 53.615,262.353 53.516,262.411C53.351,262.511 53.172,262.579 53.007,262.673C53.607,262.332 53.363,262.527 53.152,262.6C53.043,262.637 52.933,262.672 52.822,262.7C52.597,262.762 52.371,262.794 52.144,262.842C52.991,262.661 52.229,262.816 51.975,262.816C51.782,262.816 51.589,262.785 51.398,262.787C52.089,262.78 51.82,262.852 51.581,262.806C51.468,262.785 51.356,262.76 51.245,262.731C51.171,262.712 51.097,262.691 51.024,262.669C50.805,262.602 50.395,262.348 51.063,262.712C50.896,262.621 50.72,262.549 50.556,262.452C50.456,262.393 50.365,262.328 50.269,262.265C49.896,262.023 50.713,262.665 50.394,262.357C50.249,262.215 50.1,262.081 49.966,261.929C49.792,261.729 49.787,261.519 50.042,262.04C49.975,261.902 49.862,261.774 49.784,261.64C49.664,261.44 49.484,260.834 49.713,261.576C49.642,261.35 49.55,261.135 49.492,260.904C49.434,260.673 49.425,260.026 49.449,260.848C49.442,260.593 49.409,260.348 49.416,260.086C49.416,259.986 49.428,259.891 49.433,259.794C49.453,259.376 49.305,260.47 49.433,259.852C49.484,259.624 49.547,259.398 49.622,259.176C49.757,258.742 49.349,259.718 49.561,259.315C49.634,259.175 49.703,259.035 49.785,258.9C49.826,258.832 49.871,258.767 49.914,258.7C50.131,258.362 49.494,259.177 49.914,258.713C50.079,258.529 50.396,258.348 50.514,258.142L50.252,258.342C50.328,258.287 50.406,258.233 50.485,258.181C50.643,258.081 50.807,257.981 50.975,257.893C51.043,257.858 51.467,257.693 51.075,257.833C50.661,257.979 51.243,257.78 51.317,257.757C51.45,257.716 51.585,257.681 51.717,257.651C51.807,257.632 51.898,257.615 51.989,257.601C51.576,257.651 51.499,257.666 51.757,257.644C53.074,257.644 54.157,256.561 54.157,255.244C54.157,253.927 53.074,252.844 51.757,252.844C47.789,252.995 44.607,256.301 44.607,260.272C44.607,262.765 45.861,265.097 47.941,266.472C50.387,267.966 53.466,267.996 55.941,266.551C57.222,265.796 58.225,264.646 58.799,263.274C59.375,261.855 59.538,260.302 59.269,258.795C59.026,257.261 58.286,255.849 57.164,254.775C55.693,253.435 53.745,252.739 51.758,252.844C50.441,252.844 49.358,253.927 49.358,255.244C49.358,256.561 50.441,257.644 51.758,257.644L51.754,257.647Z" style="fill:rgb(33,23,21);fill-rule:nonzero;"/>
    </g>
</svg>
