<?xml version="1.0" encoding="UTF-8" standalone="no"?>
<!DOCTYPE svg PUBLIC "-//W3C//DTD SVG 1.1//EN" "http://www.w3.org/Graphics/SVG/1.1/DTD/svg11.dtd">
<svg width="100%" height="100%" viewBox="0 0 125 125" version="1.1" xmlns="http://www.w3.org/2000/svg" xmlns:xlink="http://www.w3.org/1999/xlink" xml:space="preserve" xmlns:serif="http://www.serif.com/" style="fill-rule:evenodd;clip-rule:evenodd;stroke-linejoin:round;stroke-miterlimit:2;">
    <g transform="matrix(1,0,0,1,0,-2.001377)">
        <path d="M122.418,72.7L122.418,106.35L93.028,123.31L92.408,122.24L92.408,90.017C102.408,84.237 112.411,78.465 122.418,72.7Z" style="fill:rgb(61,141,204);fill-rule:nonzero;"/>
        <path d="M92.408,90.017C82.408,84.237 72.408,78.464 62.408,72.697C62.618,72.577 62.818,72.457 63.028,72.337C72.818,66.677 82.611,61.02 92.408,55.367C102.408,61.147 112.411,66.924 122.418,72.697C112.418,78.467 102.415,84.24 92.408,90.017Z" style="fill:white;fill-rule:nonzero;"/>
        <path d="M92.408,122.237L93.028,123.307C92.818,123.427 92.618,123.547 92.408,123.667C82.408,117.897 72.408,112.124 62.408,106.347L62.408,72.7C72.408,78.47 82.408,84.243 92.408,90.02L92.408,122.237Z" style="fill:white;fill-rule:nonzero;"/>
        <path d="M92.408,21.717L92.408,55.367C82.618,61.027 72.825,66.684 63.028,72.337L62.408,71.257L62.408,39.047C72.408,33.267 82.408,27.49 92.408,21.717Z" style="fill:white;fill-rule:nonzero;"/>
        <path d="M62.408,39.047C52.648,33.407 42.885,27.767 33.118,22.127C32.878,21.987 32.648,21.857 32.408,21.717C42.408,15.947 52.408,10.174 62.408,4.397C72.408,10.167 82.408,15.94 92.408,21.717C82.408,27.497 72.408,33.274 62.408,39.047Z" style="fill:rgb(61,141,204);fill-rule:nonzero;"/>
        <path d="M62.408,71.257L63.028,72.337C62.818,72.457 62.618,72.577 62.408,72.697C52.408,66.917 42.408,61.14 32.408,55.367L32.408,21.717C42.168,27.357 52.648,33.407 62.408,39.047L62.408,71.257Z" style="fill:white;fill-rule:nonzero;"/>
        <path d="M62.408,72.7L62.408,106.35C52.618,112 42.825,117.653 33.028,123.31L32.408,122.24L32.408,90.017C42.408,84.237 52.408,78.465 62.408,72.7Z" style="fill:rgb(61,141,204);fill-rule:nonzero;"/>
        <path d="M32.408,90.017C22.638,84.377 12.871,78.74 3.108,73.107C2.868,72.967 2.638,72.837 2.398,72.697C12.398,66.917 22.401,61.14 32.408,55.367C42.408,61.147 52.408,66.924 62.408,72.697C52.408,78.467 42.408,84.24 32.408,90.017Z" style="fill:white;fill-rule:nonzero;"/>
        <path d="M32.408,122.237L33.028,123.307C32.818,123.427 32.618,123.547 32.408,123.667C22.398,117.897 12.395,112.124 2.398,106.347L2.398,72.7C12.158,78.33 22.638,84.38 32.408,90.02L32.408,122.237Z" style="fill:white;fill-rule:nonzero;"/>
        <path d="M4.8,106.032L4.8,74.332C4.8,71.244 0,71.239 0,74.332L0,106.032C0,109.121 4.8,109.126 4.8,106.032Z" style="fill:rgb(33,23,21);fill-rule:nonzero;"/>
        <path d="M30,89.83L30,122.235C30,125.323 34.8,125.328 34.8,122.235L34.8,89.83C34.8,86.742 30,86.737 30,89.83Z" style="fill:rgb(33,23,21);fill-rule:nonzero;"/>
        <path d="M60.008,72.693L60.008,106.344C60.008,109.433 64.808,109.438 64.808,106.344L64.808,72.693C64.808,69.605 60.008,69.6 60.008,72.693Z" style="fill:rgb(33,23,21);fill-rule:nonzero;"/>
        <path d="M1.189,108.416L31.189,125.739C31.938,126.17 32.862,126.17 33.611,125.739L63.611,108.416C66.286,106.872 63.871,102.723 61.189,104.272L31.189,121.594L33.611,121.594L3.611,104.272C0.931,102.724 -1.489,106.872 1.189,108.416Z" style="fill:rgb(33,23,21);fill-rule:nonzero;"/>
        <path d="M1.189,74.766L31.189,92.089C31.938,92.519 32.862,92.519 33.611,92.089L63.611,74.766C66.286,73.222 63.871,69.072 61.189,70.621L31.189,87.944L33.611,87.944L3.611,70.621C0.931,69.074 -1.489,73.221 1.189,74.766Z" style="fill:rgb(33,23,21);fill-rule:nonzero;"/>
        <path d="M3.611,74.766L33.611,57.443L31.193,57.443L61.193,74.766C63.873,76.313 66.293,72.166 63.615,70.621L33.615,53.298C32.866,52.868 31.942,52.868 31.193,53.298L1.193,70.621C-1.482,72.165 0.933,76.315 3.615,74.766L3.611,74.766Z" style="fill:rgb(33,23,21);fill-rule:nonzero;"/>
        <path d="M90.012,89.83L90.012,122.235C90.012,125.323 94.812,125.328 94.812,122.235L94.812,89.83C94.812,86.742 90.012,86.737 90.012,89.83Z" style="fill:rgb(33,23,21);fill-rule:nonzero;"/>
        <path d="M120.016,72.693L120.016,106.344C120.016,109.433 124.816,109.438 124.816,106.344L124.816,72.693C124.816,69.605 120.016,69.6 120.016,72.693Z" style="fill:rgb(33,23,21);fill-rule:nonzero;"/>
        <path d="M61.2,108.416L91.2,125.739C91.949,126.17 92.873,126.17 93.622,125.739L123.622,108.416C126.297,106.872 123.882,102.723 121.2,104.272L91.2,121.594L93.622,121.594L63.622,104.272C60.942,102.724 58.522,106.872 61.2,108.416Z" style="fill:rgb(33,23,21);fill-rule:nonzero;"/>
        <path d="M61.2,74.766L91.2,92.089C91.949,92.519 92.873,92.519 93.622,92.089L123.622,74.766C126.297,73.222 123.882,69.072 121.2,70.621L91.2,87.944L93.622,87.944L63.622,70.621C60.942,69.074 58.522,73.221 61.2,74.766Z" style="fill:rgb(33,23,21);fill-rule:nonzero;"/>
        <path d="M63.619,74.766L93.619,57.443L91.2,57.443L121.2,74.766C123.88,76.313 126.3,72.166 123.622,70.621L93.622,53.298C92.873,52.868 91.949,52.868 91.2,53.298L61.2,70.621C58.525,72.165 60.94,76.315 63.622,74.766L63.619,74.766Z" style="fill:rgb(33,23,21);fill-rule:nonzero;"/>
        <path d="M34.8,55.059L34.8,23.359C34.8,20.27 30,20.265 30,23.359L30,55.059C30,58.148 34.8,58.153 34.8,55.059Z" style="fill:rgb(33,23,21);fill-rule:nonzero;"/>
        <path d="M60.008,38.857L60.008,71.257C60.008,74.346 64.808,74.351 64.808,71.257L64.808,38.857C64.808,35.768 60.008,35.763 60.008,38.857Z" style="fill:rgb(33,23,21);fill-rule:nonzero;"/>
        <path d="M90.012,21.72L90.012,55.371C90.012,58.459 94.812,58.464 94.812,55.371L94.812,21.72C94.812,18.631 90.012,18.626 90.012,21.72Z" style="fill:rgb(33,23,21);fill-rule:nonzero;"/>
        <path d="M31.193,23.792L61.193,41.115C61.942,41.546 62.866,41.546 63.615,41.115L93.615,23.792C96.29,22.248 93.875,18.099 91.193,19.648L61.2,36.97L63.622,36.97L33.622,19.648C30.942,18.1 28.522,22.248 31.2,23.792L31.193,23.792Z" style="fill:rgb(33,23,21);fill-rule:nonzero;"/>
        <path d="M33.615,23.792L63.615,6.469L61.2,6.469L91.2,23.792C93.88,25.34 96.3,21.192 93.622,19.648L63.622,2.325C62.873,1.894 61.949,1.894 61.2,2.325L31.2,19.648C28.525,21.192 30.94,25.341 33.622,23.792L33.615,23.792Z" style="fill:rgb(33,23,21);fill-rule:nonzero;"/>
    </g>
</svg>
